<?xml version="1.0" standalone="no"?><!DOCTYPE svg PUBLIC "-//W3C//DTD SVG 1.1//EN" "http://www.w3.org/Graphics/SVG/1.1/DTD/svg11.dtd"><svg class="icon" width="200px" height="200.00px" viewBox="0 0 1024 1024" version="1.1" xmlns="http://www.w3.org/2000/svg"><path fill="#333333" d="M946.268 885.671l-266.4-262.8c57.6-61.2 82.8-133.2 82.8-223.2 0-183.6-144-331.2-331.2-331.2-187.2 0-338.4 147.6-338.4 331.2 0 183.6 151.2 324 338.4 324 79.2 0 151.2-18 208.8-61.2l270 262.8c3.6 3.6 10.8 7.2 18 7.2s18-7.2 21.6-10.8c3.6-7.2 7.2-25.2-3.6-36v0zM143.468 399.671c0-151.2 126-273.6 280.8-273.6s280.8 122.4 280.8 273.6c0 151.2-126 273.6-280.8 273.6-154.8 0-280.8-122.4-280.8-273.6v0z" /></svg>